<?xml version="1.0" standalone="no"?>
<!DOCTYPE svg PUBLIC "-//W3C//DTD SVG 20010904//EN"
 "http://www.w3.org/TR/2001/REC-SVG-20010904/DTD/svg10.dtd">
<svg version="1.0" xmlns="http://www.w3.org/2000/svg"
 width="260.000000pt" height="260.000000pt" viewBox="0 0 260.000000 260.000000"
 preserveAspectRatio="xMidYMid meet">
<metadata>
Created by potrace 1.14, written by Peter Selinger 2001-2017
</metadata>
<g transform="translate(0.000000,260.000000) scale(0.100000,-0.100000)"
fill="#000000" stroke="none">
<path d="M1307 2375 c-30 -11 -64 -28 -74 -37 -18 -17 -21 -16 -55 8 -36 26
-37 26 -84 10 -26 -9 -72 -16 -101 -16 -49 0 -70 -12 -40 -23 8 -3 5 -8 -8
-14 -48 -21 -85 -50 -96 -73 -6 -14 -15 -32 -19 -40 -13 -28 -44 -23 -57 9
-12 33 3 66 35 74 9 2 4 3 -11 1 -32 -4 -79 -38 -97 -70 -9 -17 -9 -30 3 -65
15 -43 15 -44 -8 -47 -18 -2 -22 -8 -18 -25 4 -18 3 -19 -6 -7 -9 13 -11 13
-11 -2 0 -10 5 -18 11 -18 5 0 7 -4 4 -10 -7 -11 -49 13 -76 42 -14 16 -18 16
-35 2 -15 -12 -15 -15 -3 -11 19 6 62 -20 55 -32 -3 -4 3 -17 14 -29 22 -24
19 -42 -16 -79 -19 -20 -26 -23 -43 -14 -33 18 -37 12 -8 -14 29 -28 41 -79
12 -55 -8 7 -15 19 -15 26 0 8 -5 14 -11 14 -21 0 -3 -35 29 -56 29 -20 31
-24 16 -32 -16 -9 -14 -14 15 -51 18 -22 37 -41 42 -41 5 0 9 -6 9 -14 0 -7 7
-19 15 -26 8 -7 15 -20 15 -30 0 -9 12 -22 26 -29 l27 -12 -22 -23 c-32 -34
-25 -42 9 -8 16 17 46 33 67 37 21 4 32 10 25 12 -7 3 -27 0 -44 -6 -17 -6
-33 -10 -34 -8 -2 1 1 23 7 47 19 90 29 136 34 169 11 65 27 84 149 186 20 17
40 30 44 31 4 0 20 6 35 12 16 7 40 12 55 12 40 -1 234 31 254 41 11 5 18 3
22 -8 4 -9 9 -13 12 -10 3 3 17 2 30 -3 15 -6 24 -6 24 0 0 13 33 13 46 1 5
-5 55 -12 112 -15 57 -3 112 -11 123 -17 12 -6 23 -8 26 -5 6 6 71 -33 124
-75 32 -25 69 -99 49 -99 -4 0 -11 -11 -14 -25 -4 -17 4 -50 26 -102 24 -56
34 -72 36 -55 2 12 7 22 11 22 12 0 22 -143 11 -154 -7 -7 -10 -4 -10 6 0 11
-8 15 -25 14 -32 -1 -32 -10 -1 -24 19 -8 26 -22 31 -57 4 -25 11 -48 16 -51
5 -3 6 9 2 27 -4 21 -1 34 8 41 11 8 10 9 -3 4 -19 -6 -26 18 -8 29 6 3 10 15
10 27 0 11 8 22 20 25 11 3 20 10 20 15 0 5 4 7 10 3 5 -3 17 6 26 20 9 14 23
25 30 25 18 0 18 12 -3 55 -16 34 -16 37 5 81 12 25 18 43 12 39 -20 -13 -32
6 -17 29 14 21 20 126 7 126 -4 0 -7 6 -7 13 0 34 -48 127 -77 148 -20 15 -26
17 -17 6 8 -10 12 -20 9 -22 -3 -3 -23 17 -46 44 -41 48 -132 108 -163 108
-26 0 -79 24 -74 34 3 4 -5 6 -18 3 -18 -3 -27 3 -37 21 -9 17 -16 21 -21 14
-4 -6 -12 -8 -18 -5 -6 4 -9 11 -6 15 2 5 -11 7 -30 6 -19 -1 -35 2 -35 6 0 8
-78 21 -141 24 -26 0 -71 -8 -102 -20z m183 -5 c0 -5 -12 -10 -27 -10 -22 0
-25 2 -13 10 20 13 40 13 40 0z m-325 -50 c8 -13 -40 -24 -62 -15 -16 7 -15 9
7 15 36 11 48 11 55 0z m721 -142 c23 -27 25 -69 5 -76 -11 -4 -13 3 -7 28 3
19 3 31 0 27 -4 -4 -13 1 -21 11 -10 14 -12 14 -8 1 4 -9 0 -16 -8 -16 -9 0
-12 8 -9 24 5 29 23 29 48 1z m87 -111 c-3 -5 -10 -4 -15 1 -6 6 -7 16 -3 22
6 9 9 9 16 -1 4 -7 5 -17 2 -22z m52 -47 c-3 -5 -10 -10 -16 -10 -5 0 -9 5 -9
10 0 6 7 10 16 10 8 0 12 -4 9 -10z m-1345 -170 c0 -5 -4 -10 -9 -10 -6 0 -13
5 -16 10 -3 6 1 10 9 10 9 0 16 -4 16 -10z m1230 -4 c0 -2 -8 -10 -17 -17 -16
-13 -17 -12 -4 4 13 16 21 21 21 13z m43 -41 c9 -18 9 -19 -6 -6 -10 7 -17 23
-16 35 0 14 2 16 6 6 3 -8 10 -24 16 -35z m-1303 25 c13 -8 13 -10 -2 -10 -9
0 -20 5 -23 10 -8 13 5 13 25 0z m1351 -39 c-6 -10 -8 -21 -5 -24 3 -3 0 -8
-7 -13 -8 -4 -10 -3 -5 4 4 8 0 12 -11 12 -15 0 -14 4 7 20 31 24 33 25 21 1z
m-1264 -168 c-3 -10 -5 -4 -5 12 0 17 2 24 5 18 2 -7 2 -21 0 -30z"/>
<path d="M1514 1713 c-34 -7 -106 -73 -95 -87 6 -8 3 -20 -9 -36 -11 -14 -20
-39 -20 -57 0 -41 17 -86 30 -78 6 4 4 12 -5 21 -30 30 -15 101 29 137 18 15
19 16 2 10 -13 -4 -17 -3 -12 5 12 20 109 43 201 46 74 3 78 2 25 -3 l-65 -7
75 -5 c41 -4 82 -8 90 -11 33 -11 56 -22 83 -40 15 -11 27 -15 27 -9 0 10 -42
42 -70 55 -8 3 -5 4 8 2 34 -6 22 14 -21 37 -28 14 -63 20 -144 22 -60 2 -118
1 -129 -2z m259 -50 c-7 -2 -19 -2 -25 0 -7 3 -2 5 12 5 14 0 19 -2 13 -5z"/>
<path d="M969 1706 c-2 -2 -34 -6 -72 -8 -71 -5 -109 -27 -120 -69 -6 -21 7
-20 83 6 44 15 140 19 140 7 0 -6 20 -13 44 -16 24 -4 62 -20 84 -35 25 -19
44 -26 52 -21 11 7 11 12 -1 26 -11 14 -12 18 -1 22 9 3 -2 15 -27 31 -23 15
-38 31 -34 35 5 4 3 7 -2 5 -5 -1 -23 3 -38 9 -27 11 -99 17 -108 8z"/>
<path d="M1543 1653 c9 -2 25 -2 35 0 9 3 1 5 -18 5 -19 0 -27 -2 -17 -5z"/>
<path d="M1480 1640 c-18 -12 -2 -12 25 0 13 6 15 9 5 9 -8 0 -22 -4 -30 -9z"/>
<path d="M1941 1614 c0 -11 3 -14 6 -6 3 7 2 16 -1 19 -3 4 -6 -2 -5 -13z"/>
<path d="M853 1613 c9 -2 23 -2 30 0 6 3 -1 5 -18 5 -16 0 -22 -2 -12 -5z"/>
<path d="M1013 1613 c9 -2 23 -2 30 0 6 3 -1 5 -18 5 -16 0 -22 -2 -12 -5z"/>
<path d="M1593 1607 c-26 -9 -33 -17 -33 -38 0 -27 7 -33 61 -49 24 -7 29 -4
45 25 15 29 21 32 38 23 19 -10 19 -12 -10 -34 l-29 -24 28 0 c15 0 27 4 27 8
0 4 10 9 23 10 77 8 83 21 27 58 -47 31 -123 40 -177 21z m90 -4 c-7 -2 -19
-2 -25 0 -7 3 -2 5 12 5 14 0 19 -2 13 -5z m51 -12 c4 -5 -3 -7 -14 -4 -23 6
-26 13 -6 13 8 0 17 -4 20 -9z m-124 -21 c0 -5 -4 -10 -10 -10 -5 0 -10 5 -10
10 0 6 5 10 10 10 6 0 10 -4 10 -10z"/>
<path d="M1080 1599 c95 -38 106 -150 22 -232 -22 -21 -57 -45 -78 -52 l-39
-14 48 2 c26 1 48 7 48 12 1 17 21 35 30 29 5 -3 9 -2 8 3 -3 19 2 27 9 15 6
-9 19 10 41 58 18 39 30 74 27 77 -3 3 -9 -5 -14 -17 -8 -21 -10 -18 -15 21
-4 33 -14 52 -41 76 -20 18 -44 33 -53 32 -13 0 -11 -3 7 -10z"/>
<path d="M966 1559 c-8 -41 -1 -49 39 -49 45 0 65 32 39 61 -9 10 -29 19 -44
19 -23 0 -29 -5 -34 -31z m68 3 c3 -5 -8 -9 -24 -9 -16 0 -27 4 -24 9 3 4 14
8 24 8 10 0 21 -4 24 -8z"/>
<path d="M1486 1565 c-11 -8 -17 -17 -14 -20 3 -3 16 3 29 14 27 23 14 28 -15
6z"/>
<path d="M1090 1561 c0 -5 7 -12 16 -15 24 -9 28 -7 14 9 -14 17 -30 20 -30 6z"/>
<path d="M1870 1524 c0 -171 -271 -248 -408 -116 -20 20 -42 35 -48 34 -7 -1
-18 14 -26 34 -8 20 -18 32 -21 27 -11 -17 43 -87 85 -112 22 -12 37 -25 34
-28 -3 -3 1 -15 9 -27 8 -11 15 -29 15 -39 0 -10 5 -15 10 -12 17 11 11 43
-12 59 -27 20 -25 20 36 1 107 -33 210 -10 286 63 40 39 49 55 55 95 5 32 4
52 -4 60 -8 8 -11 -2 -11 -39z"/>
<path d="M1172 1548 c6 -18 28 -21 28 -4 0 9 -7 16 -16 16 -9 0 -14 -5 -12
-12z"/>
<path d="M840 1538 c0 -9 5 -20 10 -23 13 -8 13 5 0 25 -8 13 -10 13 -10 -2z"/>
<path d="M865 1541 c-3 -5 -1 -12 5 -16 5 -3 10 1 10 9 0 18 -6 21 -15 7z"/>
<path d="M728 1513 c6 -2 18 -2 25 0 6 3 1 5 -13 5 -14 0 -19 -2 -12 -5z"/>
<path d="M696 1480 c4 -19 7 -51 6 -70 0 -25 2 -30 7 -16 7 19 8 18 23 -3 16
-23 80 -71 94 -71 4 0 -11 13 -32 28 -52 38 -64 54 -85 115 -14 37 -17 42 -13
17z"/>
<path d="M925 1500 c3 -5 8 -10 11 -10 2 0 4 5 4 10 0 6 -5 10 -11 10 -5 0 -7
-4 -4 -10z"/>
<path d="M1055 1500 c3 -5 8 -10 11 -10 2 0 4 5 4 10 0 6 -5 10 -11 10 -5 0
-7 -4 -4 -10z"/>
<path d="M1600 1500 c0 -5 5 -10 10 -10 6 0 10 5 10 10 0 6 -4 10 -10 10 -5 0
-10 -4 -10 -10z"/>
<path d="M950 1482 c0 -5 7 -9 15 -9 8 0 12 4 9 9 -3 4 -9 8 -15 8 -5 0 -9 -4
-9 -8z"/>
<path d="M2008 1468 c-13 -11 -13 -19 -2 -53 7 -22 13 -34 13 -27 1 7 6 10 12
6 6 -3 8 -18 5 -33 -6 -25 -6 -25 9 -7 17 23 19 63 5 100 -11 29 -19 32 -42
14z"/>
<path d="M1951 1326 c-14 -56 -11 -64 13 -37 13 15 15 26 8 52 l-8 34 -13 -49z"/>
<path d="M1498 1265 c-3 -3 -42 -7 -86 -8 -44 -1 -84 -6 -88 -10 -4 -4 -18 -7
-31 -7 -12 0 -23 -5 -23 -10 0 -18 185 -6 215 14 14 9 25 19 25 21 0 7 -5 6
-12 0z"/>
<path d="M1125 1246 c-18 -13 -18 -14 3 -25 30 -16 53 -14 46 4 -4 8 -1 15 6
15 6 0 8 5 5 10 -9 14 -38 12 -60 -4z"/>
<path d="M1455 1075 c-40 -6 -80 -8 -93 -3 -13 5 -31 4 -42 -2 -22 -12 -100
-13 -100 -2 0 7 -167 9 -195 2 -5 -1 13 -7 40 -13 46 -9 308 -12 365 -3 14 2
49 7 78 11 28 4 52 11 52 16 0 11 -13 10 -105 -6z"/>
<path d="M1252 982 c-52 -2 -72 -6 -69 -15 2 -7 9 -12 16 -12 6 0 15 -6 20
-13 4 -7 12 -12 17 -11 5 2 24 -1 42 -5 26 -6 44 -2 88 19 62 30 62 46 1 42
-23 -1 -75 -3 -115 -5z"/>
<path d="M987 820 c-3 -13 0 -20 8 -20 8 0 16 -8 20 -18 7 -23 83 -79 149
-110 38 -17 66 -22 130 -22 118 0 115 0 141 10 14 5 27 6 29 1 11 -18 59 4
104 45 115 108 119 114 81 114 -12 0 -17 4 -14 11 5 7 1 8 -11 1 -28 -14 -68
-29 -75 -28 -4 0 -15 -6 -25 -15 -23 -20 -101 -24 -314 -17 -78 2 -105 8 -145
28 -28 14 -51 28 -53 33 -7 14 -20 7 -25 -13z"/>
<path d="M800 780 c-30 -16 -64 -29 -75 -30 -11 0 -31 -9 -45 -20 -17 -14 -41
-20 -77 -20 -29 0 -70 -6 -90 -14 -47 -18 -134 -36 -175 -36 -16 0 -67 -9
-112 -19 -44 -11 -114 -22 -153 -26 l-73 -7 0 -304 0 -304 1300 0 1300 0 0
235 0 235 -22 5 c-13 3 -52 10 -88 15 -197 30 -484 112 -525 151 -12 10 -46
27 -77 38 -31 11 -66 25 -79 31 -21 12 -22 11 -15 -20 14 -72 -37 -170 -103
-197 -142 -60 -466 -70 -606 -21 -96 34 -149 62 -194 104 -71 64 -90 137 -46
178 23 22 34 57 18 56 -5 -1 -33 -14 -63 -30z"/>
</g>
</svg>
